<svg width="60" height="60" viewBox="0 0 60 60" fill="none" xmlns="http://www.w3.org/2000/svg">
<circle cx="30" cy="30" r="30" fill="black" fill-opacity="0.2"/>
<circle cx="30" cy="30" r="15" fill="black" fill-opacity="0.9"/>
<g clip-path="url(#clip0)">
<path d="M30.7071 22.2929C30.3166 21.9024 29.6834 21.9024 29.2929 22.2929L22.2929 29.2929C21.9024 29.6834 21.9024 30.3166 22.2929 30.7071C22.6834 31.0976 23.3166 31.0976 23.7071 30.7071L24 30.4142V37C24 37.5523 24.4477 38 25 38H27C27.5523 38 28 37.5523 28 37V35C28 34.4477 28.4477 34 29 34H31C31.5523 34 32 34.4477 32 35V37C32 37.5523 32.4477 38 33 38H35C35.5523 38 36 37.5523 36 37V30.4142L36.2929 30.7071C36.6834 31.0976 37.3166 31.0976 37.7071 30.7071C38.0976 30.3166 38.0976 29.6834 37.7071 29.2929L30.7071 22.2929Z" fill="white"/>
</g>
<defs>
<clipPath id="clip0">
<rect width="16" height="16" fill="white" transform="translate(22 22)"/>
</clipPath>
</defs>
</svg>
