<svg xmlns="http://www.w3.org/2000/svg" viewBox="0 0 693.31 178.48"><defs><style>.cls-1{fill:#fff;}.cls-2{fill:#95d4cb;}.cls-3{fill:#c0e5df;}.cls-4{fill:#e9f5f3;}.cls-5{fill:#67c3b8;}.cls-6{fill:#00a89b;}</style></defs><g id="Layer_2" data-name="Layer 2"><g id="Layer_3" data-name="Layer 3"><path class="cls-1" d="M252.13,102.59v14.49a6.49,6.49,0,0,0,1,4c.68.89,1.91,1.33,3.68,1.33a13.39,13.39,0,0,0,1.94-.15,6.29,6.29,0,0,0,1.71-.46l.15,9.13a21.4,21.4,0,0,1-3.26.79,23,23,0,0,1-4,.34,18.45,18.45,0,0,1-6.38-.95,9.9,9.9,0,0,1-4.14-2.74,10.66,10.66,0,0,1-2.24-4.27,20.54,20.54,0,0,1-.69-5.52v-16h-6.08V93.31h6v-10h12.23v10H261v9.28Z"/><path class="cls-1" d="M278.88,81.23a6.47,6.47,0,0,1-.57,2.7,6.87,6.87,0,0,1-3.8,3.61,7.46,7.46,0,0,1-2.77.53,7,7,0,0,1-5.09-2,6.72,6.72,0,0,1-1.52-7.45,6.14,6.14,0,0,1,1.52-2.17A7.93,7.93,0,0,1,268.93,75a6.85,6.85,0,0,1,2.81-.57,7.46,7.46,0,0,1,2.77.53,7,7,0,0,1,2.28,1.45,6.8,6.8,0,0,1,1.52,2.16A6.47,6.47,0,0,1,278.88,81.23Zm-13.37,49.93V93.31H278v37.85Z"/><path class="cls-1" d="M334.67,131.16V110.49a20.57,20.57,0,0,0-.23-3.08,7.17,7.17,0,0,0-.84-2.54,4.77,4.77,0,0,0-1.63-1.71,5,5,0,0,0-2.7-.65,5.47,5.47,0,0,0-2.77.68,6.18,6.18,0,0,0-2,1.83,8.14,8.14,0,0,0-1.18,2.62,12.49,12.49,0,0,0-.38,3.08v20.44H310.5V109.58a9.09,9.09,0,0,0-1.29-5.17,4.62,4.62,0,0,0-4.11-1.9,5.29,5.29,0,0,0-4.6,2.36,9.86,9.86,0,0,0-1.63,5.77v20.52H286.33V93.31h12.08v5.25h.16a12.69,12.69,0,0,1,1.71-2.36,10.53,10.53,0,0,1,2.47-2A14,14,0,0,1,306,92.78a13.79,13.79,0,0,1,3.91-.53,13.55,13.55,0,0,1,6.95,1.67,11.47,11.47,0,0,1,4.45,4.79A14.39,14.39,0,0,1,326.15,94a14,14,0,0,1,7.22-1.75,13.59,13.59,0,0,1,6.5,1.41,12,12,0,0,1,4.22,3.64,15.26,15.26,0,0,1,2.32,5,21.57,21.57,0,0,1,.72,5.43v23.41Z"/><path class="cls-1" d="M389.54,112.69v1.52a13.35,13.35,0,0,1-.08,1.45H362a6.64,6.64,0,0,0,1,2.89,8.08,8.08,0,0,0,2,2.24,9.92,9.92,0,0,0,2.81,1.48,9.81,9.81,0,0,0,3.23.53,10.43,10.43,0,0,0,5-1.1,9.87,9.87,0,0,0,3.34-2.85l8.66,5.47a17.4,17.4,0,0,1-7,6,23.28,23.28,0,0,1-10.14,2.09,24.42,24.42,0,0,1-8.06-1.33,19.61,19.61,0,0,1-6.65-3.88,17.81,17.81,0,0,1-4.48-6.27,21,21,0,0,1-1.64-8.51,21.39,21.39,0,0,1,1.6-8.4A19,19,0,0,1,356,97.61a19.49,19.49,0,0,1,6.46-4.07,22.15,22.15,0,0,1,8.06-1.44,20.52,20.52,0,0,1,7.67,1.4,16.81,16.81,0,0,1,6,4.07,18.85,18.85,0,0,1,3.91,6.46A24.77,24.77,0,0,1,389.54,112.69Zm-11.48-4.78a7.49,7.49,0,0,0-1.86-5.1,7,7,0,0,0-5.58-2.12,9.46,9.46,0,0,0-3.35.57,8.86,8.86,0,0,0-2.66,1.55,7.7,7.7,0,0,0-1.82,2.32,6.72,6.72,0,0,0-.76,2.78Z"/><path class="cls-1" d="M422.37,131.16a36,36,0,0,1-11.7-1.82,24.85,24.85,0,0,1-9.09-5.36,24.34,24.34,0,0,1-5.85-8.66,31,31,0,0,1-2.09-11.75,28,28,0,0,1,2.21-11.24A25.72,25.72,0,0,1,402,83.59a27.72,27.72,0,0,1,9.28-5.67,34.3,34.3,0,0,1,23.14,0,27.8,27.8,0,0,1,9.19,5.63,25.34,25.34,0,0,1,6.05,8.66,28.05,28.05,0,0,1,2.16,11.14,23.92,23.92,0,0,1-.68,5.81,23.06,23.06,0,0,1-1.83,4.9,21.12,21.12,0,0,1-2.58,3.92,20.3,20.3,0,0,1-2.89,2.85v.22l11.33-.22v10.33ZM438,103.73a18.26,18.26,0,0,0-1.11-6.46,14.79,14.79,0,0,0-3.11-5.1,14.08,14.08,0,0,0-4.83-3.3,15.64,15.64,0,0,0-6.15-1.18,15.25,15.25,0,0,0-6.05,1.18,14.53,14.53,0,0,0-4.82,3.3,15,15,0,0,0-3.19,5.1,17.83,17.83,0,0,0-1.14,6.46,19.05,19.05,0,0,0,1.1,6.65,15.06,15.06,0,0,0,3.11,5.16,13.92,13.92,0,0,0,4.79,3.35,16.36,16.36,0,0,0,12.2,0,14.1,14.1,0,0,0,4.86-3.35,15.25,15.25,0,0,0,3.2-5.16A18.6,18.6,0,0,0,438,103.73Z"/><path class="cls-1" d="M498,112.09a20.47,20.47,0,0,1-1.67,8.39,19,19,0,0,1-4.56,6.39,21.08,21.08,0,0,1-6.69,4.07,23.59,23.59,0,0,1-16.23,0,20.39,20.39,0,0,1-6.68-4.07,19.21,19.21,0,0,1-4.53-6.39,20.47,20.47,0,0,1-1.67-8.39,20.26,20.26,0,0,1,1.67-8.36,18.77,18.77,0,0,1,4.53-6.31,19.62,19.62,0,0,1,6.68-4,24.72,24.72,0,0,1,16.23,0,20.25,20.25,0,0,1,6.69,4,18.58,18.58,0,0,1,4.56,6.31A20.26,20.26,0,0,1,498,112.09Zm-12,0a10.73,10.73,0,0,0-.61-3.58,9.28,9.28,0,0,0-1.74-3.07,8.86,8.86,0,0,0-2.82-2.17,8.71,8.71,0,0,0-10.52,2.17,9.13,9.13,0,0,0-1.67,3.07,11.5,11.5,0,0,0,0,7.15,9.73,9.73,0,0,0,1.71,3.15,8.23,8.23,0,0,0,2.81,2.24,9.36,9.36,0,0,0,7.75,0,8.33,8.33,0,0,0,2.81-2.24,9.73,9.73,0,0,0,1.71-3.15A11.49,11.49,0,0,0,486,112.09Z"/><path class="cls-1" d="M527.7,131.16V110.49a16.55,16.55,0,0,0-.26-3,8.71,8.71,0,0,0-.87-2.55,4.61,4.61,0,0,0-1.71-1.74,5.45,5.45,0,0,0-2.78-.65,6.29,6.29,0,0,0-2.92.65,5.8,5.8,0,0,0-2.09,1.78,8.17,8.17,0,0,0-1.26,2.62,11.28,11.28,0,0,0-.42,3.08v20.52H502.85V93.31h12.09v5.25h.15a12.59,12.59,0,0,1,1.78-2.4,11,11,0,0,1,2.59-2,16.17,16.17,0,0,1,3.23-1.37,12.82,12.82,0,0,1,3.72-.53,14,14,0,0,1,6.46,1.37,12.32,12.32,0,0,1,4.3,3.53,14,14,0,0,1,2.35,5,22.62,22.62,0,0,1,.72,5.62v23.41Z"/><path class="cls-1" d="M570,131.16V110.49a17.47,17.47,0,0,0-.26-3,8.43,8.43,0,0,0-.88-2.55,4.61,4.61,0,0,0-1.71-1.74,5.41,5.41,0,0,0-2.77-.65,6.33,6.33,0,0,0-2.93.65,5.89,5.89,0,0,0-2.09,1.78,7.94,7.94,0,0,0-1.25,2.62,11.28,11.28,0,0,0-.42,3.08v20.52H545.11V93.31h12.08v5.25h.15a13.11,13.11,0,0,1,1.79-2.4,11.16,11.16,0,0,1,2.58-2A16.26,16.26,0,0,1,565,92.78a12.82,12.82,0,0,1,3.72-.53,14,14,0,0,1,6.46,1.37,12.38,12.38,0,0,1,4.29,3.53,14,14,0,0,1,2.36,5,22.62,22.62,0,0,1,.72,5.62v23.41Z"/><path class="cls-1" d="M626.43,112.69v1.52a13.35,13.35,0,0,1-.08,1.45H598.92a6.51,6.51,0,0,0,1,2.89,8.08,8.08,0,0,0,2,2.24,10.05,10.05,0,0,0,6,2,10.43,10.43,0,0,0,5-1.1,9.87,9.87,0,0,0,3.34-2.85l8.66,5.47a17.4,17.4,0,0,1-7,6,23.28,23.28,0,0,1-10.14,2.09,24.38,24.38,0,0,1-8.06-1.33,19.61,19.61,0,0,1-6.65-3.88,17.81,17.81,0,0,1-4.48-6.27,21,21,0,0,1-1.64-8.51,21.39,21.39,0,0,1,1.6-8.4,19,19,0,0,1,4.33-6.38,19.49,19.49,0,0,1,6.46-4.07,22.15,22.15,0,0,1,8.06-1.44,20.52,20.52,0,0,1,7.67,1.4,16.81,16.81,0,0,1,6,4.07A18.85,18.85,0,0,1,625,104,24.77,24.77,0,0,1,626.43,112.69ZM615,107.91a7.49,7.49,0,0,0-1.86-5.1,7.05,7.05,0,0,0-5.59-2.12,9.44,9.44,0,0,0-3.34.57,8.86,8.86,0,0,0-2.66,1.55,7.7,7.7,0,0,0-1.82,2.32,6.72,6.72,0,0,0-.76,2.78Z"/><path class="cls-1" d="M657.28,105.55a7.53,7.53,0,0,0-2.88-2.2,8.85,8.85,0,0,0-3.73-.84,7.87,7.87,0,0,0-3.57.8,8.66,8.66,0,0,0-2.74,2.13,9.93,9.93,0,0,0-1.78,3.07,10.72,10.72,0,0,0-.65,3.73,11.08,11.08,0,0,0,.61,3.72,9.1,9.1,0,0,0,1.79,3.08,8.44,8.44,0,0,0,2.81,2.09,8.59,8.59,0,0,0,3.68.76,10.42,10.42,0,0,0,3.77-.72,7.22,7.22,0,0,0,3-2.09l6.91,8.43a16.18,16.18,0,0,1-6.08,3.58,23.93,23.93,0,0,1-7.9,1.29,25.08,25.08,0,0,1-8.37-1.37,19.37,19.37,0,0,1-6.75-4,18.66,18.66,0,0,1-4.52-6.35,22.31,22.31,0,0,1,0-16.79,18.76,18.76,0,0,1,4.52-6.35,19.92,19.92,0,0,1,6.75-4,24.33,24.33,0,0,1,8.29-1.4,22.18,22.18,0,0,1,4.07.38,27.27,27.27,0,0,1,3.88,1,18.54,18.54,0,0,1,3.42,1.6,14.45,14.45,0,0,1,2.69,2.09Z"/><path class="cls-1" d="M684.41,102.59v14.49a6.56,6.56,0,0,0,1,4c.68.89,1.91,1.33,3.69,1.33a13.49,13.49,0,0,0,1.94-.15,6.39,6.39,0,0,0,1.71-.46l.15,9.13a21.26,21.26,0,0,1-3.27.79,23,23,0,0,1-3.95.34,18.47,18.47,0,0,1-6.39-.95,9.9,9.9,0,0,1-4.14-2.74,10.79,10.79,0,0,1-2.24-4.27,20.55,20.55,0,0,1-.68-5.52v-16h-6.08V93.31h6v-10h12.23v10h8.9v9.28Z"/><polygon class="cls-2" points="187.43 133.16 180.71 147.36 195.9 152.83 203.12 137.65 187.43 133.16"/><polygon class="cls-3" points="180.71 147.36 183.94 154.58 198.14 159.81 195.9 152.83 180.71 147.36"/><polygon class="cls-4" points="195.9 152.83 198.14 159.81 205.86 144.87 203.12 137.65 195.9 152.83"/><path class="cls-1" d="M170.12,117.64a.53.53,0,0,1-.24-.06l-5-2.75a.51.51,0,0,1-.25-.37.51.51,0,0,1,.14-.42l4.11-4.14a.47.47,0,0,1,.35-.15.54.54,0,0,1,.22,0l5.14,2.52a.51.51,0,0,1,.28.36.55.55,0,0,1-.14.44l-4.25,4.37A.51.51,0,0,1,170.12,117.64Z"/><path d="M169.23,110.25l5.14,2.52-4.25,4.37-5-2.75,4.1-4.14m0-1a1,1,0,0,0-.71.3l-4.1,4.14a.94.94,0,0,0-.28.84,1,1,0,0,0,.5.74l5,2.74a.94.94,0,0,0,.48.13,1,1,0,0,0,.72-.3l4.25-4.37a1,1,0,0,0,.27-.87,1,1,0,0,0-.55-.73l-5.14-2.52a1,1,0,0,0-.44-.1Z"/><polygon class="cls-2" points="165.13 114.39 166.16 118.92 171.11 121.48 170.12 117.14 165.13 114.39"/><polygon class="cls-3" points="171.11 121.48 175.28 116.74 174.37 112.77 170.12 117.14 171.11 121.48"/><polygon class="cls-4" points="208.71 93.88 200.2 93.01 200.15 101.81 209.27 102.75 208.71 93.88"/><polygon class="cls-2" points="200.2 93.01 197.08 95.99 196.98 104.23 200.15 101.81 200.2 93.01"/><polygon class="cls-3" points="200.15 101.81 196.98 104.23 206.06 105.47 209.27 102.75 200.15 101.81"/><polygon class="cls-5" points="119.83 0.87 111.32 0 111.27 8.8 120.39 9.74 119.83 0.87"/><polygon class="cls-2" points="111.32 0 108.2 2.98 108.1 11.22 111.27 8.8 111.32 0"/><polygon class="cls-3" points="111.27 8.8 108.1 11.22 117.18 12.46 120.39 9.74 111.27 8.8"/><polygon class="cls-2" points="54.11 26.96 37.29 21.15 29.2 36.12 46.49 42.09 54.11 26.96"/><polygon class="cls-4" points="54.11 26.96 56.56 34.43 49.19 49.65 46.49 42.09 54.11 26.96"/><polygon class="cls-3" points="49.19 49.65 33.32 44.17 29.2 36.12 46.49 42.09 49.19 49.65"/><path class="cls-2" d="M120,28.89c-37.66,1.9-70.5,36.91-73.35,78.2s25.37,73.21,63,71.3,70.5-36.91,73.36-78.2S157.71,27,120,28.89Z"/><path class="cls-6" d="M103.22,163A50,50,0,0,1,62.54,146c-9.94-11.25-15.46-27.16-14.22-45.16A76.74,76.74,0,0,1,68.89,53.93c11.57-12.34,26.9-20.36,43.32-21.2a50,50,0,0,1,40.68,17c9.94,11.25,15.46,27.16,14.21,45.16a76.8,76.8,0,0,1-20.57,46.92C135,154.09,119.63,162.12,103.22,163Z"/><path class="cls-1" d="M88.56,90.1l16.26,13.73.23.14.1.06c1.43.83,3.44.25,4.87-1.41l.12-.12L133.2,74c1.31-1.54,1.48-3.68.38-4.76s-3-.71-4.34.83L107.86,94.22,93.39,83.33c-1.35-1.08-3.53-.44-4.86,1.43S87.21,89,88.56,90.1Z"/><path class="cls-1" d="M66.44,100.13c.07-1,.16-2,.32-3l-10.84.55c-.13,1-.22,2-.29,3s-.12,2-.12,3l10.84-.55C66.32,102.14,66.37,101.14,66.44,100.13Z"/><path class="cls-1" d="M88.26,60.85c1.07-.76,2.16-1.48,3.27-2.13l.43-.24-4.7-10a48.14,48.14,0,0,0-4.11,2.68l4.69,10Z"/><path class="cls-1" d="M63.37,73.94l9,5.45L74.92,75l-9-5.45C65,70.94,64.16,72.42,63.37,73.94Z"/><path class="cls-1" d="M143.19,117.15c-.65,1.2-1.32,2.37-2.06,3.51l-.3.45,9,5.45c.92-1.44,1.78-2.9,2.58-4.42l-8.95-5.47Z"/><path class="cls-1" d="M69.68,120.85l-.18-.44-9.78,6.4a39.22,39.22,0,0,0,2,4.2l9.8-6.39-.24-.42A32,32,0,0,1,69.68,120.85Z"/><path class="cls-1" d="M83,137.46l-.38-.28-6.11,10.57a35.47,35.47,0,0,0,3.77,2.3l6.11-10.56-.39-.2A28.31,28.31,0,0,1,83,137.46Z"/><path class="cls-1" d="M129.38,56.57l3.77,2.31,6.11-10.56A33.56,33.56,0,0,0,135.51,46Z"/><path class="cls-1" d="M102,143.48l-.82,11.86a24.76,24.76,0,0,0,2.72,0c.91,0,1.83-.11,2.73-.24l.82-11.87v-.12l-5.45.27v.13Z"/><path class="cls-1" d="M113.73,52.61l.82-11.87c-.89,0-1.8,0-2.72,0s-1.83.11-2.73.24l-.82,11.87V53l5.45-.28Z"/><path class="cls-1" d="M123.79,137.62l4.71,10c1.4-.84,2.76-1.73,4.1-2.7l-4.7-10Z"/><path class="cls-1" d="M156,69.25a40.29,40.29,0,0,0-2-4.2l-9.79,6.4,2,4.2Z"/><path class="cls-1" d="M160.25,92.41,149.41,93h-.11l-.42,6H149l10.84-.54c.13-1,.22-2,.29-3S160.25,93.39,160.25,92.41Z"/><path class="cls-1" d="M113,23.29c-37.67,1.9-70.5,36.91-73.35,78.2s25.36,73.21,63,71.31,70.5-36.92,73.35-78.21S150.7,21.39,113,23.29Zm-9.66,139.86a50,50,0,0,1-40.68-17C52.76,135,47.24,119,48.48,101A76.81,76.81,0,0,1,69.06,54.13C80.63,41.79,96,33.77,112.37,32.93a50,50,0,0,1,40.68,17C163,61.13,168.51,77,167.27,95A76.8,76.8,0,0,1,146.7,142C135.12,154.29,119.8,162.32,103.38,163.15Z"/><polygon class="cls-2" points="173.12 73.86 184.43 52.94 166.09 35.34 155.72 56.85 173.12 73.86"/><polygon class="cls-3" points="173.12 73.86 191.96 69.43 202.51 48.69 184.43 52.94 173.12 73.86"/><polygon class="cls-5" points="202.51 48.69 182.63 31.45 166.09 35.34 184.43 52.94 202.51 48.69"/><polygon class="cls-5" points="25.3 113.69 51.5 111.21 36.02 90.41 9.81 92.88 25.3 113.69"/><polygon class="cls-2" points="9.81 92.88 0 118.21 15.36 138.72 25.17 113.39 9.81 92.88"/><polygon class="cls-3" points="41.52 136.46 15.31 138.93 25.04 113.83 51.8 111.08 41.52 136.46"/></g></g></svg>