<?xml version="1.0" encoding="UTF-8"?><svg id="Layer_2" xmlns="http://www.w3.org/2000/svg" viewBox="0 0 378.4 58.8"><defs><style>.cls-1{fill:#fff;}</style></defs><g id="Layer_3"><g><path class="cls-1" d="M40.9,20.2c0,3.1-.6,5.8-1.8,7.9s-2.7,3.9-4.7,5.2c-2,1.3-4.3,2.3-6.8,2.9s-5.3,.9-8.1,.9h-6.5v20.3H0V3.7H19.8c2.9,0,5.7,.3,8.2,.9s4.8,1.5,6.7,2.8,3.4,3,4.5,5.1c1.2,2,1.7,4.6,1.7,7.7h0Zm-13,.1c0-1.3-.2-2.3-.8-3.1-.5-.8-1.2-1.4-2-1.9s-1.8-.8-2.9-.9-2.2-.2-3.4-.2h-5.7v12.7h5.5c1.2,0,2.4-.1,3.5-.3,1.1-.2,2.1-.6,3-1.1s1.6-1.2,2.1-2c.5-.9,.7-1.9,.7-3.2h0Z"/><path class="cls-1" d="M83.6,38.4c0,3.1-.6,5.9-1.7,8.4s-2.6,4.6-4.6,6.4c-1.9,1.8-4.2,3.1-6.7,4.1s-5.2,1.4-8.1,1.4-5.5-.5-8.1-1.4c-2.6-1-4.8-2.3-6.7-4.1-1.9-1.8-3.4-3.9-4.5-6.4s-1.7-5.3-1.7-8.4,.6-5.9,1.7-8.4,2.6-4.6,4.5-6.3c1.9-1.7,4.1-3,6.7-3.9s5.3-1.4,8.1-1.4,5.6,.5,8.1,1.4,4.8,2.2,6.7,3.9c1.9,1.7,3.5,3.8,4.6,6.3s1.7,5.3,1.7,8.4Zm-12,0c0-1.2-.2-2.4-.6-3.6s-1-2.2-1.8-3.1-1.7-1.6-2.8-2.2-2.4-.8-3.9-.8-2.8,.3-3.9,.8-2,1.3-2.8,2.2-1.3,1.9-1.7,3.1-.6,2.4-.6,3.6,.2,2.4,.6,3.6,1,2.2,1.7,3.2c.8,.9,1.7,1.7,2.8,2.2s2.4,.8,3.9,.8,2.8-.3,3.9-.8c1.1-.6,2-1.3,2.8-2.2s1.3-2,1.7-3.2c.5-1.2,.7-2.4,.7-3.6Z"/><path class="cls-1" d="M114.6,31.9c-.7-.9-1.7-1.7-2.9-2.2-1.2-.6-2.5-.8-3.7-.8s-2.5,.3-3.6,.8-2,1.2-2.7,2.1-1.4,1.9-1.8,3.1-.6,2.4-.6,3.7,.2,2.6,.6,3.7c.4,1.2,1,2.2,1.8,3.1s1.7,1.6,2.8,2.1c1.1,.5,2.3,.8,3.7,.8,1.3,0,2.5-.2,3.8-.7,1.2-.5,2.2-1.2,3-2.1l6.9,8.4c-1.6,1.5-3.6,2.7-6.1,3.6s-5.1,1.3-7.9,1.3c-3,0-5.8-.5-8.4-1.4s-4.8-2.2-6.8-4c-1.9-1.8-3.4-3.9-4.5-6.3-1.1-2.5-1.6-5.3-1.6-8.4s.5-5.9,1.6-8.4,2.6-4.6,4.5-6.3,4.2-3.1,6.8-4,5.4-1.4,8.3-1.4c1.4,0,2.7,.1,4.1,.4,1.3,.2,2.6,.6,3.9,1,1.2,.4,2.4,1,3.4,1.6s1.9,1.3,2.7,2.1l-7.3,8.2h0Z"/><path class="cls-1" d="M165.8,57.5h-15.4l-12.4-18.2h-.2v18.2h-12.5V0h12.5V35h.2l12.1-15.3h15.1l-14.6,17.1,15.2,20.7h0Z"/><path class="cls-1" d="M204.9,39v1.5c0,.5,0,1-.1,1.4h-27.4c.1,1.1,.4,2,1,2.9s1.2,1.6,2,2.2,1.8,1.1,2.8,1.5c1,.3,2.1,.5,3.2,.5,2,0,3.6-.4,5-1.1s2.5-1.7,3.3-2.8l8.7,5.5c-1.8,2.6-4.1,4.6-7,6s-6.3,2.1-10.1,2.1c-2.8,0-5.5-.4-8.1-1.3-2.5-.9-4.8-2.2-6.6-3.9-1.9-1.7-3.4-3.8-4.5-6.3s-1.6-5.3-1.6-8.5,.5-5.9,1.6-8.4,2.5-4.6,4.3-6.4,4-3.1,6.5-4.1,5.2-1.4,8.1-1.4,5.3,.5,7.7,1.4c2.3,.9,4.3,2.3,6,4.1s3,3.9,3.9,6.5c.8,2.5,1.3,5.3,1.3,8.6h0Zm-11.5-4.8c0-2-.6-3.7-1.9-5.1-1.2-1.4-3.1-2.1-5.6-2.1-1.2,0-2.3,.2-3.3,.6s-1.9,.9-2.7,1.6c-.8,.7-1.4,1.4-1.8,2.3-.5,.9-.7,1.8-.8,2.8l16.1-.1h0Z"/><path class="cls-1" d="M224.7,28.9v14.5c0,1.8,.3,3.1,1,4s1.9,1.3,3.7,1.3c.6,0,1.2-.1,1.9-.2s1.2-.2,1.7-.5l.1,9.1c-.9,.3-2,.6-3.3,.8s-2.6,.3-4,.3c-2.5,0-4.7-.3-6.4-.9-1.7-.6-3.1-1.6-4.1-2.7s-1.8-2.6-2.2-4.3c-.5-1.7-.7-3.5-.7-5.5V28.8h-6.1v-9.3h6V9.5h12.2v10h8.9v9.3h-8.7v.1Z"/><path class="cls-1" d="M263.2,30.8c-1-1-2.2-1.8-3.6-2.4s-2.8-1-4.3-1c-1.2,0-2.2,.2-3.2,.7s-1.5,1.2-1.5,2.4,.5,1.8,1.6,2.3,2.9,1,5.3,1.5c1.4,.3,2.9,.7,4.3,1.3,1.4,.6,2.8,1.3,3.9,2.2,1.2,.9,2.1,2,2.8,3.3,.7,1.3,1.1,2.9,1.1,4.7,0,2.4-.5,4.4-1.4,6-1,1.7-2.2,3-3.8,4-1.5,1-3.3,1.8-5.2,2.2s-3.9,.7-5.8,.7c-3.1,0-6.1-.5-9.1-1.5s-5.4-2.4-7.4-4.4l7-7.4c1.1,1.2,2.5,2.2,4.1,3s3.3,1.2,5.2,1.2c1,0,2-.2,3-.7s1.5-1.3,1.5-2.6-.6-2-1.8-2.6-3.1-1.1-5.7-1.8c-1.3-.3-2.6-.7-4-1.2s-2.5-1.2-3.5-2.1-1.9-1.9-2.5-3.2c-.7-1.3-1-2.8-1-4.6,0-2.3,.5-4.2,1.4-5.8,1-1.6,2.2-2.9,3.7-3.9s3.2-1.8,5-2.2,3.7-.7,5.5-.7c2.8,0,5.6,.4,8.3,1.3,2.7,.9,5,2.2,6.9,4l-6.8,7.3h0Z"/><path class="cls-1" d="M312.8,39v1.5c0,.5,0,1-.1,1.4h-27.4c.1,1.1,.4,2,1,2.9s1.2,1.6,2,2.2,1.8,1.1,2.8,1.5c1,.3,2.1,.5,3.2,.5,2,0,3.7-.4,5-1.1,1.4-.7,2.5-1.7,3.3-2.8l8.7,5.5c-1.8,2.6-4.1,4.6-7,6s-6.3,2.1-10.2,2.1c-2.8,0-5.5-.4-8.1-1.3-2.5-.9-4.8-2.2-6.7-3.9-1.9-1.7-3.4-3.8-4.5-6.3s-1.6-5.3-1.6-8.5,.5-5.9,1.6-8.4,2.5-4.6,4.3-6.4,4-3.1,6.5-4.1,5.2-1.4,8.1-1.4,5.3,.5,7.7,1.4c2.3,.9,4.3,2.3,6,4.1s3,3.9,3.9,6.5c1,2.5,1.5,5.3,1.5,8.6h0Zm-11.5-4.8c0-2-.6-3.7-1.9-5.1-1.2-1.4-3.1-2.1-5.6-2.1-1.2,0-2.3,.2-3.3,.6s-1.9,.9-2.7,1.6-1.4,1.4-1.8,2.3c-.5,.9-.7,1.8-.8,2.8l16.1-.1h0Z"/><path class="cls-1" d="M345.7,57.5c-4.3,0-8.2-.6-11.7-1.8s-6.6-3-9.1-5.4-4.5-5.2-5.8-8.7c-1.4-3.4-2.1-7.3-2.1-11.7,0-4.1,.7-7.8,2.2-11.2,1.5-3.4,3.5-6.3,6.1-8.7s5.7-4.3,9.3-5.7c3.6-1.3,7.4-2,11.6-2s8,.7,11.5,2,6.6,3.2,9.2,5.6c2.6,2.4,4.6,5.3,6,8.7,1.4,3.4,2.2,7.1,2.2,11.1,0,2.1-.2,4-.7,5.8s-1.1,3.4-1.8,4.9-1.6,2.8-2.6,3.9-1.9,2.1-2.9,2.8v.2l11.3-.2v10.3l-32.7,.1h0Zm15.6-27.5c0-2.3-.4-4.5-1.1-6.5-.7-2-1.8-3.7-3.1-5.1s-3-2.5-4.8-3.3-3.9-1.2-6.2-1.2-4.2,.4-6,1.2-3.5,1.9-4.8,3.3-2.4,3.1-3.2,5.1-1.1,4.1-1.1,6.5,.4,4.7,1.1,6.7,1.8,3.7,3.1,5.2c1.3,1.4,2.9,2.6,4.8,3.3,1.8,.8,3.9,1.2,6.1,1.2s4.2-.4,6.1-1.2c1.9-.8,3.5-1.9,4.9-3.3s2.4-3.2,3.2-5.2,1-4.3,1-6.7h0Z"/></g></g></svg>