<?xml version="1.0" encoding="UTF-8"?><svg id="Layer_2" xmlns="http://www.w3.org/2000/svg" viewBox="0 0 617.61 178.48"><defs><style>.cls-1{fill:#00a89b;}.cls-2{fill:#67c3b8;}.cls-3{fill:#e9f5f3;}.cls-4{fill:#fff;}.cls-5{fill:#95d4cb;}.cls-6{fill:#c0e5df;}</style></defs><g id="Layer_3"><g><g><path class="cls-4" d="M280.1,93.92c0,3.14-.58,5.79-1.75,7.94-1.17,2.15-2.74,3.89-4.71,5.21-1.98,1.32-4.26,2.28-6.84,2.89-2.58,.61-5.27,.91-8.06,.91h-6.46v20.29h-13v-53.81h19.76c2.94,0,5.69,.29,8.25,.87,2.56,.58,4.79,1.52,6.69,2.81,1.9,1.29,3.39,2.99,4.48,5.09,1.09,2.1,1.63,4.7,1.63,7.79Zm-13,.08c0-1.27-.25-2.3-.76-3.12-.51-.81-1.19-1.44-2.05-1.9s-1.84-.76-2.93-.91c-1.09-.15-2.22-.23-3.38-.23h-5.7v12.69h5.47c1.22,0,2.38-.1,3.5-.3,1.11-.2,2.12-.56,3-1.06,.89-.51,1.58-1.18,2.09-2.01,.51-.84,.76-1.89,.76-3.15Z"/><path class="cls-4" d="M322.81,112.09c0,3.09-.56,5.89-1.67,8.4s-2.63,4.64-4.56,6.38c-1.93,1.75-4.16,3.1-6.69,4.07-2.53,.96-5.24,1.44-8.13,1.44s-5.54-.48-8.09-1.44c-2.56-.96-4.79-2.32-6.69-4.07-1.9-1.75-3.41-3.88-4.52-6.38-1.12-2.51-1.67-5.31-1.67-8.4s.56-5.88,1.67-8.36c1.11-2.48,2.62-4.58,4.52-6.31,1.9-1.72,4.13-3.04,6.69-3.95,2.56-.91,5.26-1.37,8.09-1.37s5.6,.46,8.13,1.37c2.53,.91,4.76,2.23,6.69,3.95,1.92,1.72,3.45,3.83,4.56,6.31s1.67,5.27,1.67,8.36Zm-12.01,0c0-1.22-.2-2.41-.61-3.57-.41-1.16-.99-2.19-1.75-3.08-.76-.89-1.7-1.61-2.81-2.17s-2.41-.84-3.88-.84-2.76,.28-3.88,.84c-1.12,.56-2.04,1.28-2.77,2.17s-1.29,1.91-1.67,3.08c-.38,1.17-.57,2.36-.57,3.57s.19,2.41,.57,3.57c.38,1.17,.95,2.22,1.71,3.15,.76,.94,1.7,1.68,2.81,2.24,1.11,.56,2.41,.84,3.88,.84s2.76-.28,3.88-.84c1.11-.56,2.05-1.3,2.81-2.24s1.33-1.99,1.71-3.15c.38-1.17,.57-2.36,.57-3.57Z"/><path class="cls-4" d="M353.82,105.55c-.71-.91-1.67-1.65-2.89-2.2-1.22-.56-2.46-.84-3.72-.84s-2.51,.27-3.57,.8c-1.06,.53-1.98,1.24-2.74,2.13s-1.36,1.91-1.79,3.08c-.43,1.17-.65,2.41-.65,3.72s.2,2.56,.61,3.72c.41,1.17,1,2.19,1.79,3.08,.79,.89,1.72,1.58,2.81,2.09,1.09,.51,2.32,.76,3.69,.76,1.27,0,2.52-.24,3.76-.72,1.24-.48,2.24-1.18,3-2.09l6.92,8.44c-1.57,1.52-3.6,2.71-6.08,3.57-2.48,.86-5.12,1.29-7.9,1.29-2.99,0-5.78-.46-8.37-1.37-2.59-.91-4.84-2.24-6.75-3.99-1.91-1.75-3.42-3.86-4.51-6.35-1.1-2.48-1.64-5.29-1.64-8.44s.55-5.88,1.64-8.36c1.1-2.48,2.6-4.6,4.51-6.35,1.91-1.75,4.16-3.09,6.75-4.03,2.59-.94,5.36-1.41,8.29-1.41,1.37,0,2.72,.13,4.07,.38,1.34,.25,2.63,.6,3.88,1.03,1.24,.43,2.38,.96,3.42,1.6,1.04,.63,1.94,1.33,2.7,2.09l-7.22,8.36Z"/><path class="cls-4" d="M405.04,131.16h-15.43l-12.39-18.16h-.23v18.16h-12.54v-57.46h12.54v34.96h.23l12.08-15.35h15.12l-14.59,17.1,15.2,20.75Z"/><path class="cls-4" d="M444.11,112.69v1.52c0,.51-.03,.99-.08,1.44h-27.44c.1,1.06,.42,2.03,.95,2.89,.53,.86,1.22,1.61,2.05,2.24,.84,.63,1.77,1.13,2.81,1.48,1.04,.35,2.12,.53,3.23,.53,1.98,0,3.65-.37,5.02-1.1,1.37-.73,2.48-1.68,3.34-2.85l8.66,5.47c-1.77,2.58-4.12,4.57-7.03,5.97-2.91,1.39-6.3,2.09-10.15,2.09-2.84,0-5.52-.44-8.06-1.33-2.53-.89-4.75-2.18-6.65-3.88-1.9-1.7-3.4-3.79-4.48-6.27-1.09-2.48-1.63-5.32-1.63-8.51s.53-5.89,1.6-8.4c1.06-2.51,2.51-4.64,4.33-6.38,1.82-1.75,3.98-3.1,6.46-4.07,2.48-.96,5.17-1.44,8.06-1.44s5.34,.47,7.68,1.41c2.33,.94,4.33,2.29,6,4.07s2.98,3.93,3.91,6.46c.94,2.53,1.41,5.42,1.41,8.66Zm-11.48-4.79c0-1.98-.62-3.67-1.86-5.09-1.24-1.42-3.1-2.13-5.59-2.13-1.22,0-2.33,.19-3.34,.57s-1.9,.9-2.66,1.56c-.76,.66-1.37,1.43-1.82,2.32-.46,.89-.71,1.81-.76,2.77h16.04Z"/><path class="cls-4" d="M463.87,102.59v14.5c0,1.78,.34,3.11,1.03,4s1.91,1.33,3.69,1.33c.61,0,1.25-.05,1.94-.15s1.25-.25,1.71-.46l.15,9.12c-.86,.3-1.95,.57-3.27,.8-1.32,.23-2.63,.34-3.95,.34-2.53,0-4.66-.32-6.38-.95-1.72-.63-3.1-1.55-4.14-2.74-1.04-1.19-1.79-2.62-2.24-4.27-.46-1.65-.68-3.49-.68-5.52v-16h-6.08v-9.27h6v-9.96h12.24v9.96h8.89v9.27h-8.89Z"/><path class="cls-4" d="M502.4,104.49c-1.01-.96-2.2-1.77-3.57-2.43-1.37-.66-2.81-.99-4.33-.99-1.17,0-2.24,.23-3.23,.68s-1.48,1.24-1.48,2.36,.54,1.82,1.63,2.28c1.09,.46,2.85,.96,5.28,1.52,1.42,.3,2.85,.74,4.29,1.29,1.44,.56,2.75,1.29,3.91,2.2,1.17,.91,2.1,2.03,2.81,3.34,.71,1.32,1.06,2.89,1.06,4.71,0,2.38-.48,4.4-1.44,6.04-.96,1.65-2.22,2.98-3.76,3.99-1.55,1.01-3.28,1.75-5.21,2.2s-3.85,.68-5.78,.68c-3.09,0-6.12-.49-9.08-1.48-2.96-.99-5.43-2.44-7.41-4.37l6.99-7.37c1.11,1.22,2.48,2.23,4.1,3.04,1.62,.81,3.34,1.22,5.17,1.22,1.01,0,2.01-.24,3-.72,.99-.48,1.48-1.33,1.48-2.55s-.61-2.03-1.82-2.58-3.12-1.14-5.7-1.75c-1.32-.3-2.63-.71-3.95-1.22-1.32-.51-2.5-1.19-3.53-2.05-1.04-.86-1.89-1.92-2.55-3.19-.66-1.27-.99-2.79-.99-4.56,0-2.28,.48-4.22,1.44-5.81,.96-1.6,2.2-2.9,3.72-3.91s3.2-1.76,5.05-2.24,3.69-.72,5.51-.72c2.84,0,5.61,.44,8.32,1.33,2.71,.89,5,2.22,6.88,3.99l-6.84,7.07Z"/><path class="cls-4" d="M552.02,112.69v1.52c0,.51-.03,.99-.08,1.44h-27.44c.1,1.06,.42,2.03,.95,2.89,.53,.86,1.22,1.61,2.05,2.24,.84,.63,1.77,1.13,2.81,1.48,1.04,.35,2.12,.53,3.23,.53,1.98,0,3.65-.37,5.02-1.1,1.37-.73,2.48-1.68,3.34-2.85l8.66,5.47c-1.77,2.58-4.12,4.57-7.03,5.97-2.91,1.39-6.3,2.09-10.15,2.09-2.84,0-5.52-.44-8.06-1.33-2.53-.89-4.75-2.18-6.65-3.88-1.9-1.7-3.4-3.79-4.48-6.27-1.09-2.48-1.63-5.32-1.63-8.51s.53-5.89,1.6-8.4c1.06-2.51,2.51-4.64,4.33-6.38,1.82-1.75,3.98-3.1,6.46-4.07,2.48-.96,5.17-1.44,8.06-1.44s5.34,.47,7.68,1.41c2.33,.94,4.33,2.29,6,4.07s2.98,3.93,3.91,6.46c.94,2.53,1.41,5.42,1.41,8.66Zm-11.48-4.79c0-1.98-.62-3.67-1.86-5.09-1.24-1.42-3.1-2.13-5.59-2.13-1.22,0-2.33,.19-3.34,.57s-1.9,.9-2.66,1.56c-.76,.66-1.37,1.43-1.82,2.32-.46,.89-.71,1.81-.76,2.77h16.04Z"/><path class="cls-4" d="M584.86,131.16c-4.26,0-8.16-.61-11.7-1.82-3.55-1.22-6.57-3-9.08-5.36-2.51-2.36-4.46-5.24-5.85-8.66-1.39-3.42-2.09-7.33-2.09-11.74,0-4.1,.73-7.85,2.2-11.25,1.47-3.39,3.51-6.31,6.12-8.74,2.61-2.43,5.7-4.32,9.27-5.66,3.57-1.34,7.43-2.01,11.59-2.01s8,.67,11.55,2.01c3.55,1.34,6.61,3.22,9.2,5.62,2.58,2.41,4.6,5.29,6.04,8.66,1.44,3.37,2.17,7.08,2.17,11.13,0,2.08-.23,4.02-.68,5.81-.46,1.8-1.06,3.43-1.82,4.9s-1.62,2.77-2.58,3.91c-.96,1.14-1.93,2.09-2.89,2.85v.23l11.32-.23v10.34h-32.76Zm15.66-27.44c0-2.33-.37-4.48-1.1-6.46-.73-1.98-1.77-3.67-3.12-5.09-1.34-1.42-2.95-2.52-4.83-3.31-1.88-.79-3.93-1.18-6.16-1.18s-4.19,.39-6.04,1.18c-1.85,.79-3.46,1.89-4.83,3.31-1.37,1.42-2.43,3.12-3.19,5.09-.76,1.98-1.14,4.13-1.14,6.46s.37,4.65,1.1,6.65c.73,2,1.77,3.72,3.12,5.17,1.34,1.44,2.94,2.56,4.79,3.34,1.85,.79,3.89,1.18,6.12,1.18s4.21-.39,6.08-1.18c1.87-.78,3.5-1.9,4.86-3.34,1.37-1.44,2.43-3.17,3.19-5.17,.76-2,1.14-4.22,1.14-6.65Z"/></g><g><g><polygon class="cls-5" points="187.43 133.16 180.71 147.36 195.9 152.83 203.12 137.65 187.43 133.16"/><polygon class="cls-6" points="180.71 147.36 183.95 154.58 198.14 159.81 195.9 152.83 180.71 147.36"/><polygon class="cls-3" points="195.9 152.83 198.14 159.81 205.86 144.87 203.12 137.65 195.9 152.83"/></g><g><g><path class="cls-4" d="M170.12,117.64c-.08,0-.17-.02-.24-.06l-5-2.75c-.14-.08-.23-.21-.25-.37s.03-.31,.14-.42l4.11-4.14c.1-.1,.22-.15,.35-.15,.08,0,.15,.02,.22,.05l5.14,2.52c.14,.07,.25,.21,.27,.36,.03,.16-.02,.32-.13,.43l-4.25,4.37c-.1,.1-.23,.15-.36,.15Z"/><path d="M169.23,110.25l5.14,2.52-4.25,4.37-5-2.75,4.11-4.14m0-1c-.26,0-.52,.1-.71,.3l-4.11,4.14c-.22,.22-.32,.54-.28,.85,.04,.31,.23,.58,.51,.73l5,2.75c.15,.08,.32,.12,.48,.12,.26,0,.52-.1,.72-.3l4.25-4.37c.22-.23,.32-.55,.27-.87-.05-.32-.26-.59-.55-.73l-5.14-2.52c-.14-.07-.29-.1-.44-.1h0Z"/></g><polygon class="cls-5" points="165.13 114.39 166.16 118.92 171.11 121.48 170.12 117.14 165.13 114.39"/><polygon class="cls-6" points="171.11 121.48 175.28 116.74 174.37 112.77 170.12 117.14 171.11 121.48"/></g><g><polygon class="cls-3" points="208.71 93.88 200.2 93.01 200.15 101.81 209.27 102.75 208.71 93.88"/><polygon class="cls-5" points="200.2 93.01 197.08 95.99 196.98 104.23 200.15 101.81 200.2 93.01"/><polygon class="cls-6" points="200.15 101.81 196.98 104.23 206.06 105.47 209.27 102.75 200.15 101.81"/></g><g><polygon class="cls-2" points="119.83 .87 111.32 0 111.27 8.8 120.39 9.74 119.83 .87"/><polygon class="cls-5" points="111.32 0 108.2 2.98 108.1 11.22 111.27 8.8 111.32 0"/><polygon class="cls-6" points="111.27 8.8 108.1 11.22 117.18 12.46 120.39 9.74 111.27 8.8"/></g><g><polygon class="cls-5" points="54.11 26.96 37.29 21.15 29.2 36.12 46.5 42.09 54.11 26.96"/><polygon class="cls-3" points="54.11 26.96 56.56 34.43 49.19 49.65 46.5 42.09 54.11 26.96"/><polygon class="cls-6" points="49.19 49.65 33.32 44.17 29.2 36.12 46.5 42.09 49.19 49.65"/></g><g><path class="cls-5" d="M120.04,28.89c-37.67,1.91-70.5,36.91-73.35,78.2-2.85,41.29,25.37,73.21,63.03,71.31,37.67-1.91,70.5-36.91,73.35-78.2,2.85-41.29-25.37-73.21-63.03-71.31Z"/><path class="cls-1" d="M103.22,162.95c-16.42,.83-30.74-5.7-40.68-16.95-9.94-11.26-15.46-27.17-14.22-45.16,1.24-17.99,9-34.58,20.57-46.92,11.57-12.34,26.9-20.36,43.31-21.2,16.41-.83,30.73,5.7,40.68,16.95,9.94,11.25,15.46,27.16,14.22,45.16-1.24,17.99-9,34.57-20.57,46.92-11.58,12.34-26.9,20.36-43.31,21.19Z"/><g><path class="cls-4" d="M88.56,90.1l16.26,13.73,.23,.14,.1,.06c1.43,.84,3.44,.25,4.87-1.4l.12-.13,23.06-28.52c1.31-1.54,1.47-3.67,.38-4.76-1.1-1.09-3.04-.71-4.34,.83l-21.38,24.17-14.47-10.89c-1.35-1.08-3.53-.44-4.86,1.43-1.33,1.87-1.32,4.26,.03,5.34Z"/><path class="cls-4" d="M66.44,100.13c.07-1,.16-2.01,.32-2.99l-10.84,.55c-.13,.99-.22,1.99-.29,2.99s-.12,2.01-.12,2.99l10.84-.55c-.03-.98,.02-1.98,.09-2.99Z"/><path class="cls-4" d="M88.26,60.85c1.07-.76,2.17-1.49,3.27-2.14l.43-.24-4.69-10.01c-1.4,.82-2.78,1.71-4.12,2.69l4.69,10.02,.42-.31Z"/><path class="cls-4" d="M63.37,73.94l8.98,5.45,2.57-4.44-8.98-5.45c-.93,1.44-1.78,2.92-2.57,4.44Z"/><path class="cls-4" d="M143.19,117.15c-.64,1.2-1.32,2.37-2.06,3.51l-.3,.45,8.98,5.45c.93-1.44,1.78-2.9,2.58-4.42l-8.95-5.47-.25,.48Z"/><path class="cls-4" d="M69.68,120.85l-.19-.44-9.77,6.4c.56,1.45,1.24,2.85,1.97,4.21l9.8-6.4-.24-.42c-.57-1.07-1.1-2.19-1.56-3.35Z"/><path class="cls-4" d="M82.97,137.46l-.38-.28-6.11,10.56c1.22,.84,2.47,1.63,3.77,2.31l6.11-10.56-.4-.2c-1.02-.54-2.02-1.16-3-1.84Z"/><path class="cls-4" d="M129.38,56.57l3.77,2.31,6.11-10.56c-1.21-.84-2.46-1.61-3.75-2.29l-6.13,10.54Z"/><path class="cls-4" d="M102.03,143.48l-.82,11.87c.89,.04,1.8,.02,2.72-.03s1.83-.11,2.73-.24l.82-11.87v-.12l-5.44,.28v.12h0Z"/><path class="cls-4" d="M113.73,52.61l.82-11.87c-.89-.04-1.8-.02-2.72,.03-.91,.05-1.83,.11-2.73,.24l-.82,11.87v.12l5.44-.28v-.12Z"/><path class="cls-4" d="M123.79,137.62l4.72,10c1.4-.84,2.76-1.73,4.1-2.71l-4.69-10.02-4.12,2.73Z"/><path class="cls-4" d="M156.04,69.25c-.58-1.45-1.25-2.85-1.99-4.21l-9.8,6.4,1.99,4.2,9.79-6.4Z"/><path class="cls-4" d="M160.25,92.41l-10.84,.55h-.11l-.41,5.99h.11l10.84-.55c.14-.99,.22-1.99,.29-3,.07-1,.12-2,.12-2.98Z"/><path class="cls-4" d="M113.04,23.29c-37.67,1.91-70.5,36.91-73.35,78.2-2.85,41.29,25.37,73.21,63.03,71.31,37.67-1.91,70.5-36.91,73.35-78.2,2.85-41.29-25.37-73.21-63.03-71.31Zm-9.65,139.86c-16.42,.83-30.74-5.7-40.68-16.95-9.94-11.26-15.46-27.17-14.22-45.16,1.24-17.99,9-34.58,20.57-46.92,11.57-12.34,26.9-20.36,43.31-21.2,16.41-.83,30.73,5.7,40.68,16.95,9.94,11.25,15.46,27.16,14.22,45.16-1.24,17.99-9,34.57-20.57,46.92-11.58,12.34-26.9,20.36-43.31,21.19Z"/></g></g><g><polygon class="cls-5" points="173.12 73.86 184.43 52.94 166.09 35.34 155.72 56.85 173.12 73.86"/><polygon class="cls-6" points="173.12 73.86 191.96 69.43 202.51 48.69 184.43 52.94 173.12 73.86"/><polygon class="cls-2" points="202.51 48.69 182.63 31.45 166.09 35.34 184.43 52.94 202.51 48.69"/></g><g><polygon class="cls-2" points="25.3 113.69 51.5 111.21 36.02 90.41 9.81 92.88 25.3 113.69"/><polygon class="cls-5" points="9.81 92.88 0 118.21 15.36 138.72 25.17 113.39 9.81 92.88"/><polygon class="cls-6" points="41.52 136.46 15.31 138.93 25.04 113.83 51.8 111.08 41.52 136.46"/></g></g></g></g></svg>