<svg xmlns="http://www.w3.org/2000/svg" viewBox="0 0 645.67 178.48"><defs><style>.cls-1{fill:#95d4cb;}.cls-2{fill:#c0e5df;}.cls-3{fill:#e9f5f3;}.cls-4{fill:#fff;}.cls-5{fill:#67c3b8;}.cls-6{fill:#00a89b;}</style></defs><g id="Layer_2" data-name="Layer 2"><g id="Layer_3" data-name="Layer 3"><polygon class="cls-1" points="187.43 133.16 180.71 147.36 195.9 152.83 203.12 137.65 187.43 133.16"/><polygon class="cls-2" points="180.71 147.36 183.94 154.58 198.14 159.81 195.9 152.83 180.71 147.36"/><polygon class="cls-3" points="195.9 152.83 198.14 159.81 205.86 144.87 203.12 137.65 195.9 152.83"/><path class="cls-4" d="M170.12,117.64a.53.53,0,0,1-.24-.06l-5-2.75a.51.51,0,0,1-.25-.37.51.51,0,0,1,.14-.42l4.11-4.14a.47.47,0,0,1,.35-.15.54.54,0,0,1,.22,0l5.14,2.52a.51.51,0,0,1,.28.37.54.54,0,0,1-.14.43l-4.25,4.37A.51.51,0,0,1,170.12,117.64Z"/><path d="M169.23,110.25l5.14,2.52-4.25,4.37-5-2.75,4.1-4.14m0-1a1,1,0,0,0-.71.29l-4.1,4.15a.94.94,0,0,0-.28.84,1,1,0,0,0,.5.74l5,2.74a.94.94,0,0,0,.48.13,1,1,0,0,0,.72-.31l4.25-4.36a1,1,0,0,0,.27-.87,1,1,0,0,0-.55-.73l-5.14-2.52a1,1,0,0,0-.44-.1Z"/><polygon class="cls-1" points="165.13 114.39 166.16 118.92 171.11 121.48 170.12 117.14 165.13 114.39"/><polygon class="cls-2" points="171.11 121.48 175.28 116.74 174.37 112.77 170.12 117.14 171.11 121.48"/><polygon class="cls-3" points="208.71 93.88 200.2 93.01 200.15 101.81 209.27 102.75 208.71 93.88"/><polygon class="cls-1" points="200.2 93.01 197.08 95.99 196.98 104.23 200.15 101.81 200.2 93.01"/><polygon class="cls-2" points="200.15 101.81 196.98 104.23 206.06 105.47 209.27 102.75 200.15 101.81"/><polygon class="cls-5" points="119.83 0.87 111.32 0 111.27 8.8 120.39 9.74 119.83 0.87"/><polygon class="cls-1" points="111.32 0 108.2 2.98 108.1 11.22 111.27 8.8 111.32 0"/><polygon class="cls-2" points="111.27 8.8 108.1 11.22 117.18 12.46 120.39 9.74 111.27 8.8"/><polygon class="cls-1" points="54.11 26.96 37.29 21.15 29.2 36.12 46.49 42.09 54.11 26.96"/><polygon class="cls-3" points="54.11 26.96 56.56 34.43 49.19 49.65 46.49 42.09 54.11 26.96"/><polygon class="cls-2" points="49.19 49.65 33.32 44.17 29.2 36.12 46.49 42.09 49.19 49.65"/><path class="cls-1" d="M120,28.89c-37.66,1.9-70.5,36.91-73.35,78.2s25.37,73.21,63,71.3,70.5-36.91,73.36-78.2S157.71,27,120,28.89Z"/><path class="cls-6" d="M103.22,163A50,50,0,0,1,62.54,146c-9.94-11.25-15.46-27.16-14.22-45.16A76.74,76.74,0,0,1,68.89,53.93c11.57-12.34,26.9-20.36,43.32-21.2a50,50,0,0,1,40.68,17c9.94,11.25,15.46,27.16,14.21,45.16a76.8,76.8,0,0,1-20.57,46.92C135,154.09,119.63,162.12,103.22,163Z"/><path class="cls-4" d="M88.56,90.1l16.26,13.73.23.14.1.06c1.43.83,3.44.25,4.87-1.41l.12-.12L133.2,74c1.31-1.54,1.48-3.68.38-4.76s-3-.71-4.34.83L107.86,94.22,93.39,83.33c-1.35-1.08-3.53-.44-4.86,1.43S87.21,89,88.56,90.1Z"/><path class="cls-4" d="M66.44,100.13c.07-1,.16-2,.32-3l-10.84.55c-.13,1-.22,2-.29,3s-.12,2-.12,3l10.84-.55C66.32,102.14,66.37,101.14,66.44,100.13Z"/><path class="cls-4" d="M88.26,60.85c1.07-.76,2.16-1.48,3.27-2.13l.43-.24-4.7-10a48.14,48.14,0,0,0-4.11,2.68l4.69,10Z"/><path class="cls-4" d="M63.37,73.94l9,5.45L74.92,75l-9-5.45C65,70.94,64.16,72.42,63.37,73.94Z"/><path class="cls-4" d="M143.19,117.15c-.65,1.2-1.32,2.37-2.06,3.51l-.3.45,9,5.45c.92-1.44,1.78-2.9,2.58-4.42l-8.95-5.47Z"/><path class="cls-4" d="M69.68,120.85l-.18-.44-9.78,6.4a39.22,39.22,0,0,0,2,4.2l9.8-6.39-.24-.42A32,32,0,0,1,69.68,120.85Z"/><path class="cls-4" d="M83,137.46l-.38-.28-6.11,10.57a35.47,35.47,0,0,0,3.77,2.3l6.11-10.56-.39-.2A28.31,28.31,0,0,1,83,137.46Z"/><path class="cls-4" d="M129.38,56.57l3.77,2.31,6.11-10.56A33.56,33.56,0,0,0,135.51,46Z"/><path class="cls-4" d="M102,143.48l-.82,11.86a24.76,24.76,0,0,0,2.72,0c.91,0,1.83-.11,2.73-.24l.82-11.87v-.12l-5.45.27v.13Z"/><path class="cls-4" d="M113.73,52.61l.82-11.87c-.89,0-1.8,0-2.72,0s-1.83.11-2.73.24l-.82,11.87V53l5.45-.28Z"/><path class="cls-4" d="M123.79,137.62l4.71,10c1.4-.84,2.76-1.73,4.1-2.7l-4.7-10Z"/><path class="cls-4" d="M156,69.25a40.29,40.29,0,0,0-2-4.2l-9.79,6.4,2,4.2Z"/><path class="cls-4" d="M160.25,92.41,149.41,93h-.11l-.42,6H149l10.84-.54c.13-1,.22-2,.29-3S160.25,93.39,160.25,92.41Z"/><path class="cls-4" d="M113,23.29c-37.67,1.9-70.5,36.91-73.35,78.2s25.36,73.21,63,71.31,70.5-36.92,73.35-78.21S150.7,21.39,113,23.29Zm-9.66,139.86a50,50,0,0,1-40.68-17C52.76,135,47.24,119,48.48,101A76.81,76.81,0,0,1,69.06,54.13C80.63,41.79,96,33.77,112.37,32.93a50,50,0,0,1,40.68,17C163,61.13,168.51,77,167.27,95A76.8,76.8,0,0,1,146.7,142C135.12,154.29,119.8,162.32,103.38,163.15Z"/><polygon class="cls-1" points="173.12 73.86 184.43 52.94 166.09 35.34 155.72 56.85 173.12 73.86"/><polygon class="cls-2" points="173.12 73.86 191.96 69.43 202.51 48.69 184.43 52.94 173.12 73.86"/><polygon class="cls-5" points="202.51 48.69 182.63 31.45 166.09 35.34 184.43 52.94 202.51 48.69"/><polygon class="cls-5" points="25.3 113.69 51.5 111.21 36.02 90.41 9.81 92.88 25.3 113.69"/><polygon class="cls-1" points="9.81 92.88 0 118.21 15.36 138.72 25.17 113.39 9.81 92.88"/><polygon class="cls-2" points="41.52 136.46 15.31 138.93 25.04 113.83 51.8 111.08 41.52 136.46"/><path class="cls-4" d="M254.51,98.89v16.37a7.34,7.34,0,0,0,1.16,4.53c.77,1,2.16,1.5,4.16,1.5a14.28,14.28,0,0,0,2.19-.17,7.37,7.37,0,0,0,1.93-.51l.17,10.29a22.56,22.56,0,0,1-3.69.91,27,27,0,0,1-4.46.38,21.16,21.16,0,0,1-7.21-1.07,11.15,11.15,0,0,1-4.68-3.1,12.17,12.17,0,0,1-2.53-4.82,23.18,23.18,0,0,1-.77-6.24V98.89h-6.87V88.42h6.78V77.18h13.82V88.42h10V98.89Z"/><path class="cls-4" d="M286.43,74.78a7.21,7.21,0,0,1-.64,3,7.72,7.72,0,0,1-4.29,4.08,8.38,8.38,0,0,1-3.13.6,7.9,7.9,0,0,1-5.75-2.27,7.35,7.35,0,0,1-2.32-5.45,7.49,7.49,0,0,1,.6-3,6.93,6.93,0,0,1,1.72-2.45,9.41,9.41,0,0,1,2.57-1.67,7.76,7.76,0,0,1,3.18-.65,8.58,8.58,0,0,1,3.13.6,8,8,0,0,1,2.57,1.64,7.75,7.75,0,0,1,1.72,2.44A7.28,7.28,0,0,1,286.43,74.78Zm-15.1,56.38V88.42H285.4v42.74Z"/><path class="cls-4" d="M351.14,131.16V107.82a23.16,23.16,0,0,0-.26-3.48,8.22,8.22,0,0,0-.94-2.87,5.35,5.35,0,0,0-1.85-1.93,5.59,5.59,0,0,0-3-.73,6.22,6.22,0,0,0-3.14.77,7.07,7.07,0,0,0-2.23,2.06,9.18,9.18,0,0,0-1.33,3,14.3,14.3,0,0,0-.43,3.48v23.08H323.85V106.79a10.28,10.28,0,0,0-1.46-5.84,5.2,5.2,0,0,0-4.63-2.14,6,6,0,0,0-5.2,2.66,11.16,11.16,0,0,0-1.84,6.52v23.17H296.56V88.42H310.2v5.93h.18a13.91,13.91,0,0,1,1.93-2.66,12.17,12.17,0,0,1,2.79-2.28,16.57,16.57,0,0,1,15.92-.3,13,13,0,0,1,5,5.41,16.23,16.23,0,0,1,5.49-5.32,15.75,15.75,0,0,1,8.15-2A15.36,15.36,0,0,1,357,88.81a13.65,13.65,0,0,1,4.76,4.12,17.14,17.14,0,0,1,2.62,5.66,24.53,24.53,0,0,1,.82,6.14v26.43Z"/><path class="cls-4" d="M414.82,110.31V112a13.93,13.93,0,0,1-.09,1.63h-31a7.57,7.57,0,0,0,1.07,3.27,9.61,9.61,0,0,0,2.32,2.53,11.35,11.35,0,0,0,3.18,1.67,11.2,11.2,0,0,0,3.64.6,11.85,11.85,0,0,0,5.67-1.24,11.3,11.3,0,0,0,3.78-3.22l9.78,6.18a19.82,19.82,0,0,1-7.94,6.74,26.33,26.33,0,0,1-11.46,2.36A27.35,27.35,0,0,1,384.7,131a22,22,0,0,1-7.51-4.37,20.29,20.29,0,0,1-5.07-7.08,23.74,23.74,0,0,1-1.84-9.61,24.11,24.11,0,0,1,1.8-9.49A21.5,21.5,0,0,1,377,93.27a21.87,21.87,0,0,1,7.3-4.59,25,25,0,0,1,9.09-1.63A23,23,0,0,1,402,88.64a19,19,0,0,1,6.78,4.59,21.17,21.17,0,0,1,4.42,7.29A28.12,28.12,0,0,1,414.82,110.31Zm-13-5.41a8.44,8.44,0,0,0-2.1-5.75c-1.4-1.6-3.51-2.4-6.31-2.4a10.71,10.71,0,0,0-3.78.64,9.93,9.93,0,0,0-3,1.76,8.86,8.86,0,0,0-2.06,2.62,7.76,7.76,0,0,0-.86,3.13Z"/><path class="cls-4" d="M492.66,109.62a26.77,26.77,0,0,1-1.38,8.58,21.9,21.9,0,0,1-4,7.26,19.75,19.75,0,0,1-6.39,5,20,20,0,0,1-16.69.12,13.27,13.27,0,0,1-5.88-5h-.17v5.58h-13V66.28h14.07V93h.18a17.74,17.74,0,0,1,5.06-4,16.29,16.29,0,0,1,8-1.8,19,19,0,0,1,8.37,1.8,19.27,19.27,0,0,1,6.35,4.9,22.33,22.33,0,0,1,4,7.16A25.72,25.72,0,0,1,492.66,109.62Zm-13.56,0a12.88,12.88,0,0,0-.65-4,9.84,9.84,0,0,0-5.1-5.92,9.67,9.67,0,0,0-4.38-1,9.46,9.46,0,0,0-4.29,1,10.4,10.4,0,0,0-3.22,2.48,11.6,11.6,0,0,0-2.06,3.52,11.52,11.52,0,0,0,0,8.07,11.37,11.37,0,0,0,2.06,3.52,10.28,10.28,0,0,0,3.22,2.49,9.46,9.46,0,0,0,4.29.94,9.45,9.45,0,0,0,7.55-3.43,10.32,10.32,0,0,0,1.93-3.56A13.38,13.38,0,0,0,479.1,109.62Z"/><path class="cls-4" d="M543.46,109.62a23.22,23.22,0,0,1-1.88,9.48,21.23,21.23,0,0,1-5.15,7.21,23.44,23.44,0,0,1-7.56,4.59,26.4,26.4,0,0,1-18.32,0,22.77,22.77,0,0,1-7.55-4.59,21.4,21.4,0,0,1-5.11-7.21,23.06,23.06,0,0,1-1.89-9.48,22.77,22.77,0,0,1,1.89-9.44A21.13,21.13,0,0,1,503,93.06a22.15,22.15,0,0,1,7.55-4.46,27.84,27.84,0,0,1,18.32,0,22.78,22.78,0,0,1,7.56,4.46,21,21,0,0,1,5.15,7.12A22.93,22.93,0,0,1,543.46,109.62Zm-13.56,0a12.36,12.36,0,0,0-.68-4,10.65,10.65,0,0,0-2-3.48,9.92,9.92,0,0,0-3.17-2.44,9.87,9.87,0,0,0-11.89,2.44,10.46,10.46,0,0,0-1.89,3.48,13,13,0,0,0,0,8.06,11.06,11.06,0,0,0,1.94,3.57,9.37,9.37,0,0,0,3.17,2.53,10.65,10.65,0,0,0,8.75,0,9.51,9.51,0,0,0,3.18-2.53,11,11,0,0,0,1.93-3.57A12.87,12.87,0,0,0,529.9,109.62Z"/><path class="cls-4" d="M594.27,109.62a23.06,23.06,0,0,1-1.89,9.48,21.23,21.23,0,0,1-5.15,7.21,23.29,23.29,0,0,1-7.55,4.59,26.4,26.4,0,0,1-18.32,0,22.82,22.82,0,0,1-7.56-4.59,21.38,21.38,0,0,1-5.1-7.21,23.06,23.06,0,0,1-1.89-9.48,22.77,22.77,0,0,1,1.89-9.44,21.11,21.11,0,0,1,5.1-7.12,22.19,22.19,0,0,1,7.56-4.46,27.84,27.84,0,0,1,18.32,0,22.64,22.64,0,0,1,7.55,4.46,21,21,0,0,1,5.15,7.12A22.77,22.77,0,0,1,594.27,109.62Zm-13.56,0a12.11,12.11,0,0,0-.69-4,10.63,10.63,0,0,0-2-3.48,10.07,10.07,0,0,0-3.18-2.44,10.55,10.55,0,0,0-8.75,0,9.44,9.44,0,0,0-3.13,2.44,10.46,10.46,0,0,0-1.89,3.48,12.82,12.82,0,0,0,0,8.06,11,11,0,0,0,1.93,3.57,9.57,9.57,0,0,0,3.17,2.53,10.67,10.67,0,0,0,8.76,0,9.37,9.37,0,0,0,3.17-2.53,10.85,10.85,0,0,0,1.93-3.57A12.88,12.88,0,0,0,580.71,109.62Z"/><path class="cls-4" d="M645.67,131.16H628.25l-14-20.51H614v20.51H599.84V66.28H614v39.48h.26l13.65-17.34H645l-16.48,19.31Z"/></g></g></svg>