<svg xmlns="http://www.w3.org/2000/svg" viewBox="0 0 209.27 178.48"><defs><style>.cls-1{fill:#e9f5f3}.cls-2{fill:#c0e5df}.cls-3{fill:#95d4cb}.cls-4{fill:#fff}.cls-5{fill:#00a89b}</style></defs><g id="Layer_2" data-name="Layer 2"><g id="Layer_3" data-name="Layer 3"><path class="cls-1" d="m187.43 133.16-6.72 14.2 15.19 5.47 7.22-15.18-15.69-4.49z"/><path class="cls-2" d="m180.71 147.36 3.23 7.22 14.2 5.23-2.24-6.98-15.19-5.47z"/><path class="cls-3" d="m195.9 152.83 2.24 6.98 7.72-14.94-2.74-7.22-7.22 15.18z"/><path class="cls-4" d="M170.12 117.64a.53.53 0 0 1-.24-.06l-5-2.75a.51.51 0 0 1-.25-.37.51.51 0 0 1 .14-.42l4.11-4.14a.47.47 0 0 1 .35-.15.54.54 0 0 1 .22 0l5.14 2.52a.51.51 0 0 1 .28.37.54.54 0 0 1-.14.43l-4.25 4.37a.51.51 0 0 1-.36.2Z"/><path d="m169.23 110.25 5.14 2.52-4.25 4.37-5-2.75 4.1-4.14m0-1a1 1 0 0 0-.71.29l-4.1 4.15a.94.94 0 0 0-.28.84 1 1 0 0 0 .5.74l5 2.74a.94.94 0 0 0 .48.13 1 1 0 0 0 .72-.31l4.25-4.36a1 1 0 0 0 .27-.87 1 1 0 0 0-.55-.73l-5.14-2.52a1 1 0 0 0-.44-.1Z"/><path class="cls-2" d="m165.13 114.39 1.03 4.53 4.95 2.56-.99-4.34-4.99-2.75z"/><path class="cls-3" d="m171.11 121.48 4.17-4.74-.91-3.97-4.25 4.37.99 4.34z"/><path class="cls-1" d="m208.71 93.88-8.51-.87-.05 8.8 9.12.94-.56-8.87z"/><path class="cls-2" d="m200.2 93.01-3.12 2.98-.1 8.24 3.17-2.42.05-8.8z"/><path class="cls-3" d="m200.15 101.81-3.17 2.42 9.08 1.24 3.21-2.72-9.12-.94z"/><path class="cls-1" d="M119.83.87 111.32 0l-.05 8.8 9.12.94-.56-8.87z"/><path class="cls-2" d="m111.32 0-3.12 2.98-.1 8.24 3.17-2.42.05-8.8z"/><path class="cls-3" d="m111.27 8.8-3.17 2.42 9.08 1.24 3.21-2.72-9.12-.94z"/><path class="cls-2" d="m54.11 26.96-16.82-5.81-8.09 14.97 17.29 5.97 7.62-15.13z"/><path class="cls-1" d="m54.11 26.96 2.45 7.47-7.37 15.22-2.7-7.56 7.62-15.13z"/><path class="cls-3" d="m49.19 49.65-15.87-5.48-4.12-8.05 17.29 5.97 2.7 7.56z"/><path class="cls-2" d="M120 28.89c-37.66 1.9-70.5 36.91-73.35 78.2s25.37 73.21 63 71.3 70.5-36.91 73.36-78.2S157.71 27 120 28.89Z"/><path class="cls-4" d="M103.22 163a50 50 0 0 1-40.68-17c-9.94-11.25-15.46-27.16-14.22-45.16a76.74 76.74 0 0 1 20.57-46.91c11.57-12.34 26.9-20.36 43.32-21.2a50 50 0 0 1 40.68 17c9.94 11.25 15.46 27.16 14.21 45.16a76.8 76.8 0 0 1-20.57 46.92c-11.53 12.28-26.9 20.31-43.31 21.19Z"/><path class="cls-5" d="m88.56 90.1 16.26 13.73.23.14.1.06c1.43.83 3.44.25 4.87-1.41l.12-.12L133.2 74c1.31-1.54 1.48-3.68.38-4.76s-3-.71-4.34.83l-21.38 24.15-14.47-10.89c-1.35-1.08-3.53-.44-4.86 1.43s-1.32 4.24.03 5.34ZM66.44 100.13c.07-1 .16-2 .32-3l-10.84.55c-.13 1-.22 2-.29 3s-.12 2-.12 3l10.84-.55c-.03-.99.02-1.99.09-3ZM88.26 60.85a44.55 44.55 0 0 1 3.27-2.13l.43-.24-4.7-10a48.14 48.14 0 0 0-4.11 2.68l4.69 10ZM63.37 73.94l9 5.45L74.92 75l-9-5.45c-.92 1.39-1.76 2.87-2.55 4.39ZM143.19 117.15c-.65 1.2-1.32 2.37-2.06 3.51l-.3.45 9 5.45c.92-1.44 1.78-2.9 2.58-4.42l-8.95-5.47ZM69.68 120.85l-.18-.44-9.78 6.4a39.22 39.22 0 0 0 2 4.2l9.8-6.39-.24-.42a32 32 0 0 1-1.6-3.35ZM83 137.46l-.38-.28-6.11 10.57a35.47 35.47 0 0 0 3.77 2.3l6.11-10.56-.39-.2a28.31 28.31 0 0 1-3-1.83ZM129.38 56.57l3.77 2.31 6.11-10.56a33.56 33.56 0 0 0-3.75-2.32ZM102 143.48l-.82 11.86a24.76 24.76 0 0 0 2.72 0c.91 0 1.83-.11 2.73-.24l.82-11.87v-.12l-5.45.27v.13ZM113.73 52.61l.82-11.87h-2.72c-.92 0-1.83.11-2.73.24l-.82 11.87V53l5.45-.28ZM123.79 137.62l4.71 10c1.4-.84 2.76-1.73 4.1-2.7l-4.7-10ZM156 69.25a40.29 40.29 0 0 0-2-4.2l-9.79 6.4 2 4.2ZM160.25 92.41l-10.84.59h-.11l-.42 6h.12l10.84-.54c.13-1 .22-2 .29-3s.12-2.07.12-3.05Z"/><path class="cls-5" d="M113 23.29c-37.67 1.9-70.5 36.91-73.35 78.2s25.36 73.21 63 71.31 70.5-36.92 73.35-78.21-25.3-73.2-63-71.3Zm-9.66 139.86a50 50 0 0 1-40.68-17C52.76 135 47.24 119 48.48 101a76.81 76.81 0 0 1 20.58-46.87C80.63 41.79 96 33.77 112.37 32.93a50 50 0 0 1 40.68 17C163 61.13 168.51 77 167.27 95a76.8 76.8 0 0 1-20.57 47c-11.58 12.29-26.9 20.32-43.32 21.15Z"/><path class="cls-2" d="m173.12 73.86 11.31-20.92-18.34-17.6-10.37 21.51 17.4 17.01z"/><path class="cls-3" d="m173.12 73.86 18.84-4.43 10.55-20.74-18.08 4.25-11.31 20.92z"/><path class="cls-1" d="m202.51 48.69-19.88-17.24-16.54 3.89 18.34 17.6 18.08-4.25zM25.3 113.69l26.2-2.48-15.48-20.8-26.21 2.47 15.49 20.81z"/><path class="cls-2" d="M9.81 92.88 0 118.21l15.36 20.51 9.81-25.33L9.81 92.88z"/><path class="cls-3" d="m41.52 136.46-26.21 2.47 9.73-25.1 26.76-2.75-10.28 25.38z"/></g></g></svg>