<?xml version="1.0" standalone="no"?>
<!DOCTYPE svg PUBLIC "-//W3C//DTD SVG 20010904//EN"
 "http://www.w3.org/TR/2001/REC-SVG-20010904/DTD/svg10.dtd">
<svg version="1.0" xmlns="http://www.w3.org/2000/svg"
 width="656.000000pt" height="656.000000pt" viewBox="0 0 656.000000 656.000000"
 preserveAspectRatio="xMidYMid meet">
<metadata>
Created by potrace 1.14, written by Peter Selinger 2001-2017
</metadata>
<g transform="translate(0.000000,656.000000) scale(0.100000,-0.100000)"
fill="#000000" stroke="none">
<path d="M3456 6040 l-50 -50 -1 -135 c-1 -75 1 -138 5 -140 4 -2 33 -7 66
-10 32 -3 66 -7 74 -10 8 -2 35 -6 60 -9 25 -3 55 -8 67 -10 22 -5 45 10 111
70 23 21 24 24 17 145 -4 68 -7 132 -6 141 0 24 -24 34 -81 37 -25 1 -57 4
-70 6 -13 3 -50 7 -83 10 l-60 5 -49 -50z"/>
<path d="M1200 5435 c-7 -8 -9 -15 -5 -15 5 0 1 -8 -7 -17 -8 -10 -24 -36 -35
-58 -11 -22 -35 -67 -53 -100 -18 -33 -52 -96 -75 -140 -24 -44 -51 -94 -61
-111 -18 -31 -17 -33 1 -75 11 -24 30 -61 42 -81 13 -21 21 -38 17 -38 -3 0 4
-11 15 -25 11 -14 22 -39 26 -55 5 -24 16 -35 45 -45 3 -1 12 -4 20 -7 8 -3
38 -13 65 -23 28 -9 59 -20 70 -25 52 -22 323 -110 338 -110 15 0 34 29 35 54
0 5 4 12 9 15 4 3 18 26 30 51 12 25 58 118 102 208 l80 163 -25 82 c-13 45
-29 90 -34 99 -6 10 -10 28 -10 42 0 29 -11 38 -75 61 -27 9 -57 20 -65 23 -8
3 -17 6 -20 6 -3 1 -9 4 -15 7 -5 3 -32 12 -60 19 -27 7 -54 16 -60 20 -5 4
-55 21 -110 39 -55 18 -108 36 -117 41 -26 14 -54 12 -68 -5z"/>
<path d="M3547 5354 c-1 -1 -31 -5 -67 -8 -142 -13 -185 -21 -330 -60 -438
-116 -877 -398 -1184 -760 -22 -27 -53 -63 -68 -80 -16 -17 -28 -33 -28 -37 0
-3 -8 -15 -18 -27 -40 -46 -112 -150 -112 -162 0 -5 -4 -10 -10 -10 -5 0 -10
-5 -10 -11 0 -6 -10 -25 -22 -42 -82 -115 -219 -416 -282 -622 -37 -120 -49
-166 -62 -245 -13 -76 -13 -76 -50 -34 -19 22 -36 46 -39 55 -7 22 -62 48 -89
44 -12 -2 -48 -6 -81 -9 -33 -3 -82 -8 -110 -11 -51 -5 -108 -10 -230 -20 -38
-4 -86 -8 -105 -11 -19 -2 -66 -7 -105 -10 -86 -8 -118 -11 -125 -14 -3 -1 -9
-2 -15 0 -5 1 -24 -1 -42 -5 -27 -5 -36 -14 -59 -62 -14 -31 -27 -61 -29 -67
-1 -6 -8 -24 -14 -41 -7 -16 -26 -64 -41 -105 -16 -41 -46 -120 -68 -175 -144
-370 -154 -397 -147 -423 4 -15 82 -127 173 -250 152 -202 264 -353 317 -425
20 -27 20 -27 115 -22 52 3 108 8 125 10 38 6 138 16 190 19 22 2 74 6 115 10
113 11 148 14 225 21 127 11 158 24 176 73 5 15 12 34 15 42 3 9 15 -6 30 -42
26 -63 98 -199 124 -238 9 -14 52 -83 95 -155 153 -253 297 -425 484 -575 122
-98 302 -206 431 -259 30 -12 64 -26 75 -31 21 -10 138 -47 170 -55 11 -2 40
-10 65 -16 25 -6 54 -13 65 -15 11 -2 31 -5 45 -8 86 -16 146 -20 325 -20 182
0 288 6 338 21 11 3 29 6 40 8 72 9 175 35 260 64 31 11 57 18 57 16 0 -4 197
80 270 114 74 36 171 90 234 132 32 21 62 39 67 39 5 0 9 4 9 8 0 4 13 15 29
25 16 9 49 33 73 52 23 20 61 50 83 68 100 80 272 252 345 343 8 11 34 42 56
69 48 58 129 172 169 237 49 80 120 209 155 283 24 50 52 107 62 127 11 21 19
41 20 45 0 5 5 19 10 33 28 74 42 114 69 205 17 55 32 108 34 118 2 10 7 28
11 39 3 11 7 30 9 41 2 12 10 56 18 97 8 41 18 98 21 125 3 28 9 66 12 86 18
116 18 479 0 574 -3 17 -8 52 -10 79 -3 26 -7 56 -10 65 -3 9 -7 34 -11 56 -3
22 -8 48 -11 57 -3 9 -7 27 -10 40 -3 13 -8 33 -11 45 -6 24 -11 22 142 58 61
14 121 30 135 35 20 8 49 57 130 217 58 114 135 265 172 336 38 75 65 139 63
153 -2 23 -17 39 -112 121 -89 77 -137 118 -159 138 -12 11 -46 40 -75 65 -29
25 -105 90 -169 146 -63 55 -123 105 -134 111 -17 9 -40 5 -198 -33 -10 -2
-27 -6 -39 -9 -11 -2 -30 -7 -41 -11 -11 -3 -30 -8 -41 -10 -12 -1 -51 -10
-87 -19 -36 -8 -78 -18 -95 -21 -62 -12 -79 -28 -121 -111 -23 -46 -38 -86
-35 -89 17 -20 -77 46 -113 79 -11 9 -25 17 -32 17 -7 0 -14 4 -16 8 -7 19
-306 182 -333 182 -2 0 -16 5 -32 12 -15 6 -30 12 -33 13 -3 0 -23 7 -45 14
-57 18 -65 20 -70 21 -2 1 -33 13 -67 26 -70 28 -195 68 -248 80 -46 10 -41 9
-75 17 -17 4 -46 9 -65 12 -19 2 -57 7 -85 10 -47 7 -323 14 -328 9z"/>
<path d="M6211 3165 l-60 -57 2 -135 c2 -115 4 -136 18 -138 8 -2 41 -6 71 -9
31 -4 66 -9 79 -12 13 -2 44 -7 69 -10 24 -3 48 -6 51 -7 4 -1 32 20 63 47
l57 48 -7 112 c-3 61 -7 125 -8 143 -1 18 -4 34 -7 37 -2 2 -35 7 -74 10 -160
14 -178 16 -186 22 -5 3 -36 -20 -68 -51z"/>
<path d="M5851 1974 c-11 -8 -21 -19 -21 -24 0 -5 -20 -50 -44 -100 -25 -49
-42 -90 -40 -90 3 0 -4 -13 -15 -29 -12 -16 -21 -32 -21 -35 0 -4 -18 -46 -41
-94 l-40 -87 42 -98 c24 -54 46 -100 51 -103 4 -3 8 -13 8 -23 0 -15 55 -51
80 -51 5 0 21 -5 37 -12 15 -6 33 -12 38 -14 6 -1 77 -28 160 -58 82 -31 155
-56 162 -56 12 0 51 64 51 84 0 5 4 12 9 15 5 3 22 33 39 66 17 33 45 88 62
122 18 35 31 64 30 65 -2 2 7 17 18 33 12 17 29 48 38 69 16 39 16 39 -30 162
-51 136 -36 121 -164 158 -30 8 -89 25 -130 37 -41 13 -82 24 -90 25 -22 4
-121 34 -146 44 -15 6 -28 4 -43 -6z"/>
</g>
</svg>
